# AST/ASF file generated using VICON BodyLanguage
# -----------------------------------------------
:version 1.10
:name VICON
:units
  mass 1.0
  length 0.45
  angle deg
:documentation
   .ast/.asf automatically generated from VICON data using
   VICON BodyBuilder and BodyLanguage model FoxedUp or BRILLIANT.MOD
:root
   order TX TY TZ RX RY RZ
   axis XYZ
   position 0 0 0  
   orientation 0 0 0 
:bonedata
  begin
     id 1 
     name lhipjoint
     direction 0.734343 -0.627749 0.258209 
     length 2.5437 
     axis 0 0 0  XYZ
  end
  begin
     id 2 
     name lfemur
     direction 0.34202 -0.939693 0  
     length 6.7391  
     axis 0 0 20  XYZ
    dof rx ry rz
    limits (-160.0 20.0)
           (-70.0 70.0)
           (-60.0 70.0)
  end
  begin
     id 3 
     name ltibia
     direction 0.34202 -0.939693 0   
     length 7.21536   
     axis 0 0 20   XYZ
    dof rx
    limits (-10.0 170.0)
  end
  begin
     id 4 
     name lfoot
     direction 0.0489572 -0.134509 0.989702   
     length 1.61313   
     axis -90 7.62852e-016 20   XYZ
    dof rx rz
    limits (-45.0 90.0)
           (-70.0 20.0)
  end
  begin
     id 5 
     name ltoes
     direction 1.53451e-011 -4.21692e-011 1   
     length 0.823104   
     axis -90 7.62852e-016 20   XYZ
    dof rx
    limits (-90.0 20.0)
  end
  begin
     id 6 
     name rhipjoint
     direction -0.746398 -0.615468 0.253157   
     length 2.59446  
     axis 0 0 0  XYZ 
  end
  begin
     id 7 
     name rfemur
     direction -0.34202 -0.939693 0   
     length 6.7075   
     axis 0 0 -20   XYZ
    dof rx ry rz
    limits (-160.0 20.0)
           (-70.0 70.0)
           (-70.0 60.0)
  end
  begin
     id 8 
     name rtibia
     direction -0.34202 -0.939693 0   
     length 7.27262   
     axis 0 0 -20   XYZ
    dof rx
    limits (-10.0 170.0)
 end
 begin
     id 9 
     name rfoot
     direction -0.0455203 -0.125066 0.991104   
     length 1.91095  
     axis -90 -7.62852e-016 -20   XYZ
    dof rx rz
    limits (-45.0 90.0)
           (-20.0 70.0)
  end
  begin
     id 10 
     name rtoes
     direction -1.53601e-011 -4.21913e-011 1   
     length 0.969037   
     axis -90 -7.62852e-016 -20   XYZ
    dof rx
    limits (-90.0 20.0)
  end
  begin
     id 11 
     name lowerback
     direction 0.0181546 0.999122 -0.0377542   
     length 1.99916   
     axis 0 0 0   XYZ
    dof rx ry rz
    limits (-20.0 45.0)
           (-30.0 30.0)
           (-30.0 30.0)
  end
  begin
     id 12 
     name upperback
     direction 0.0203486 0.99589 0.0882534   
     length 1.951   
     axis 0 0 0   XYZ
    dof rx ry rz
    limits (-20.0 45.0)
           (-30.0 30.0)
           (-30.0 30.0)
  end
  begin
     id 13 
     name thorax
     direction 0.0131685 0.994241 0.106355   
     length 1.97461   
     axis 0 0 0   XYZ
    dof rx ry rz
    limits (-20.0 45.0)
           (-30.0 30.0)
           (-30.0 30.0)
  end
  begin
     id 14 
     name lowerneck
     direction -0.0281395 0.999325 0.023617   
     length 1.7959   
     axis 0 0 0   XYZ
    dof rx ry rz
    limits (-20.0 45.0)
           (-30.0 30.0)
           (-30.0 30.0)
  end
  begin
     id 15 
     name upperneck
     direction 0.0288721 0.991984 -0.123019   
     length 1.79917   
     axis 0 0 0   XYZ
    dof rx ry rz
    limits (-20.0 45.0)
           (-30.0 30.0)
           (-30.0 30.0)
  end
  begin
     id 16
     name head
     direction 0.0133797 0.998944 -0.0439492  
     length 1.80902  
     axis 0 0 0   XYZ
    dof rx ry rz
    limits (-20.0 45.0)
           (-30.0 30.0)
           (-30.0 30.0)
  end
  begin
     id 17 
     name lclavicle
     direction 0.919195 0.377107 0.113449  
     length 3.17815  
     axis 0 0 0   XYZ
    dof ry rz
    limits (-20.0 10.0)
           (0.0 20.0)
  end
  begin
     id 18 
     name lhumerus
     direction 1 -4.48959e-011 2.13129e-027   
     length 4.84137   
     axis 180 -30 -90   XYZ
    dof rx ry rz
    limits (-60.0 90.0)
           (-90.0 90.0)
           (-90.0 90.0)
  end
  begin
     id 19
     name lradius
     direction 1 -4.48957e-011 -6.30627e-028   
     length 3.2452   
     axis 180 -30 -90   XYZ
    dof rx
    limits (-10.0 170.0)
  end
  begin
     id 20
     name lwrist
     direction 1 -4.4901e-011 9.13299e-027   
     length 1.6226   
     axis -6.84618e-015 90 90   XYZ
    dof ry
    limits (-180.0 0.0)
 end
  begin
     id 21 
     name lhand
     direction 1 -4.48816e-011 1.82293e-026   
     length 0.521221   
     axis -1.16502e-014 90 90   XYZ
    dof rx rz
    limits (-90.0 90.0)
           (-45.0 45.0)
  end
  begin
     id 22 
     name lfingers
     direction 1 -4.49108e-011 3.65687e-026   
     length 0.420221   
     axis -2.33008e-014 90 90   XYZ
    dof rx
    limits (0.0 90.0)
  end
  begin
     id 23
     name lthumb
     direction 0.707107 -6.34943e-011 0.707107   
     length 0.603356   
     axis -90 45 5.69224e-014   XYZ
    dof rx rz
    limits (-45.0 45.0)
           (-45.0 45.0)
  end
  begin
     id 24 
     name rclavicle
     direction -0.90847 0.38596 0.160368   
     length 3.12973  
     axis 0 0 0   XYZ 
    dof ry rz
    limits (-10.0 20.0)
           (-20.0 0.0)
  end
  begin
     id 25 
     name rhumerus
     direction -1 -4.48974e-011 4.47268e-028  
     length 4.72284   
     axis 180 30 90   XYZ
    dof rx ry rz
    limits (-90.0 60.0)
           (-90.0 90.0)
           (-90.0 90.0)
  end
  begin
     id 26 
     name rradius
     direction -1 -4.48969e-011 3.43203e-027   
     length 3.23459   
     axis 180 30 90   XYZ
    dof rx
    limits (-10.0 170.0)
  end
  begin
     id 27 
     name rwrist
     direction -1 -4.48969e-011 9.12911e-027   
     length 1.6173   
     axis -6.84618e-015 -90 -90   XYZ
    dof ry
    limits (-180.0 0.0)
  end
  begin
     id 28
     name rhand
     direction -1 -4.49194e-011 1.83006e-026   
     length 0.307416   
     axis -1.16502e-014 -90 -90   XYZ
    dof rx rz
    limits (-90.0 90.0)
           (-45.0 45.0)
  end
  begin
     id 29
     name rfingers
     direction -1 -4.48423e-011 3.63103e-026   
     length 0.247847   
     axis -2.33008e-014 -90 -90   XYZ
    dof rx
    limits (0.0 90.0)
  end
  begin
     id 30
     name rthumb
     direction -0.707107 -6.34802e-011 0.707107   
     length 0.35586   
     axis -90 -45 -5.69224e-014   XYZ
    dof rx rz
    limits (-45.0 45.0)
           (-45.0 45.0)
  end
:hierarchy
  begin
    root lhipjoint rhipjoint lowerback
    lhipjoint lfemur
    lfemur ltibia
    ltibia lfoot
    lfoot ltoes
    rhipjoint rfemur
    rfemur rtibia
    rtibia rfoot
    rfoot rtoes
    lowerback upperback
    upperback thorax
    thorax lowerneck lclavicle rclavicle
    lowerneck upperneck
    upperneck head
    lclavicle lhumerus
    lhumerus lradius
    lradius lwrist
    lwrist lhand lthumb
    lhand lfingers
    rclavicle rhumerus
    rhumerus rradius
    rradius rwrist
    rwrist rhand rthumb
    rhand rfingers
  end

#!OML:ASF \\Waltz\H\Terrain\Patient Classification 1\Animal1\Tuesday\Animal1.ASF
:FULLY-SPECIFIED
:DEGREES
254
root -0.987809 16.1186 -1.15003 25.2609 -25.0863 4.89873
lowerback 35.6211 1.77665 -0.9299
upperback 6.29699 1.4846 -1.57686
thorax -10.8309 0.627415 -1.77566
lowerneck -7.86849 -4.02286 -6.6997
upperneck -18.0873 -3.59688 14.2975
head -3.59642 -2.1079 5.62088
rclavicle -1.03368e-014 4.25399e-014
rhumerus 35.4561 7.22816 -65.8733
rradius 77.6675
rwrist 21.9056
rhand 14.0223 6.22287
rfingers 7.12502
rthumb 38.9306 -19.317
lclavicle -1.03368e-014 4.25399e-014
lhumerus 26.0441 -44.3572 62.2924
lradius 122.468
lwrist -41.5022
lhand 46.198 63.4211
lfingers 7.12502
lthumb 67.2878 66.2595
rfemur -61.7751 17.6893 6.31647
rtibia 43.1097
rfoot -2.67355 -11.3562
rtoes -6.18992
lfemur -62.9969 -18.4704 -6.35859
ltibia 66.6075
lfoot 22.5777 -3.814
ltoes 14.4898
255
root -1.02019 16.1163 -1.16046 25.4624 -25.1925 5.40166
lowerback 34.9624 2.04961 -1.73823
upperback 6.38513 1.58591 -1.35553
thorax -10.6216 0.697644 -1.13119
lowerneck -8.15201 -4.09223 -7.54194
upperneck -17.6249 -3.64171 14.6229
head -3.37303 -2.06672 5.848
rclavicle -1.19271e-014 -1.07344e-014
rhumerus 34.3805 9.88996 -63.6184
rradius 76.999
rwrist 15.8536
rhand 22.9435 1.90046
rfingers 7.12502
rthumb 47.2667 -20.6474
lclavicle -1.19271e-014 -1.07344e-014
lhumerus 27.9766 -40.037 63.3577
lradius 123.243
lwrist -43.6743
lhand 44.5644 59.937
lfingers 7.12502
lthumb 66.0532 65.2569
rfemur -62.15 17.9447 5.52055
rtibia 42.874
rfoot -3.04325 -12.146
rtoes -4.37368
lfemur -63.3744 -18.3222 -6.57218
ltibia 66.4896
lfoot 22.8123 -3.5152
ltoes 16.8483
256
root -1.04949 16.1081 -1.15984 25.9457 -24.6409 5.41627
lowerback 34.3823 2.11474 -1.69494
upperback 6.32691 1.74042 -1.1061
thorax -10.4726 0.771218 -0.938075
lowerneck -8.50896 -4.20371 -7.75456
upperneck -17.1221 -3.77508 14.8969
head -3.1332 -2.10414 5.94564
rclavicle -1.51076e-014 3.69739e-014
rhumerus 32.5914 12.6537 -60.6256
rradius 78.3782
rwrist 6.70502
rhand 27.1458 -0.554597
rfingers 7.12502
rthumb 51.1236 -21.1668
lclavicle -1.51076e-014 3.69739e-014
lhumerus 30.4443 -35.7849 64.1636
lradius 123.175
lwrist -45.4037
lhand 44.7687 58.295
lfingers 7.12502
lthumb 66.21 63.3192
rfemur -62.3351 17.8663 5.40947
rtibia 42.5351
rfoot -2.95157 -12.845
rtoes -6.17535
lfemur -63.9984 -18.2022 -6.33205
ltibia 66.4473
lfoot 22.976 -4.70102
ltoes 12.0328
257
root -1.07841 16.0929 -1.16005 26.3486 -23.8399 5.24997
lowerback 34.0941 2.00533 -1.5184
upperback 6.21746 1.72612 -0.761604
thorax -10.4913 0.764613 -0.656502
lowerneck -8.67205 -4.15457 -7.97688
upperneck -16.906 -3.66676 15.2166
head -3.03587 -2.03581 6.07842
rclavicle 4.77083e-015 -9.93923e-015
rhumerus 30.4272 15.8087 -57.805
rradius 81.0953
rwrist -1.8118
rhand 31.4508 -5.33712
rfingers 7.12502
rthumb 55.0063 -23.4712
lclavicle 4.77083e-015 -9.93923e-015
lhumerus 32.8666 -30.8605 65.3169
lradius 121.876
lwrist -46.2206
lhand 43.7156 57.2556
lfingers 7.12502
lthumb 65.3943 63.762
rfemur -62.262 17.8058 5.53453
rtibia 42.1173
rfoot -2.25726 -13.5628
rtoes -10.1918
lfemur -64.5681 -18.14 -5.93055
ltibia 66.4278
lfoot 22.9177 -7.08846
ltoes 2.80673
258
root -1.11414 16.0977 -1.16238 26.3192 -22.9922 5.17336
lowerback 34.2873 1.75734 -1.63974
upperback 6.134 1.43832 -0.284026
thorax -10.6728 0.640689 0.0226176
lowerneck -8.81854 -3.8896 -8.57662
upperneck -16.774 -3.22811 15.5891
head -2.99643 -1.78383 6.30567
rclavicle -6.91771e-014 3.37934e-014
rhumerus 27.2822 19.7382 -57.1158
rradius 84.62
rwrist -6.99257
rhand 36.3725 -8.07683
rfingers 7.12502
rthumb 59.3263 -22.5455
lclavicle -6.91771e-014 3.37934e-014
lhumerus 34.059 -26.9059 67.7978
lradius 119.319
lwrist -48.9997
lhand 42.0933 55.8482
lfingers 7.12502
lthumb 64.1061 64.4464
rfemur -61.7197 17.8727 5.66446
rtibia 41.667
rfoot -1.46189 -14.1844
rtoes -13.4643
lfemur -64.6058 -18.2586 -5.73226
ltibia 66.3254
lfoot 22.8581 -7.81654
ltoes 1.12793
259
root -1.14426 16.133 -1.14252 26.0153 -21.8725 4.92463
lowerback 34.7839 1.33092 -1.22447
upperback 6.05596 1.11287 0.199553
thorax -10.9508 0.485536 0.436334
lowerneck -8.78034 -3.54106 -8.74617
upperneck -16.7618 -2.74433 15.5048
head -3.0584 -1.52705 6.3188
rclavicle 3.81667e-014 -2.10712e-014
rhumerus 24.5478 22.7299 -56.8295
rradius 87.543
rwrist -11.3103
rhand 42.9694 -10.3675
rfingers 7.12502
rthumb 64.8062 -17.8637
lclavicle 3.81667e-014 -2.10712e-014
lhumerus 34.7146 -24.3299 70.3812
lradius 115.872
lwrist -53.882
lhand 38.9223 55.5794
lfingers 7.12502
lthumb 61.496 67.687
rfemur -60.608 17.783 6.2622
rtibia 41.2824
rfoot -1.13103 -14.7389
rtoes -14.1607
lfemur -64.1896 -18.7226 -5.46056
ltibia 66.1774
lfoot 23.0853 -6.96861
ltoes 5.99409
